<mxfile host="app.diagrams.net" modified="2023-02-25T03:32:57.256Z" agent="5.0 (Windows NT 10.0; Win64; x64) AppleWebKit/537.36 (KHTML, like Gecko) Chrome/110.0.0.0 Safari/537.36 Edg/110.0.1587.50" etag="2CwZqw0SBT7FhAMVk5hH" version="20.8.23" type="github">
  <diagram name="第 1 页" id="1H0Z8F8A4EUNBeRVlE7c">
    <mxGraphModel dx="1181" dy="684" grid="1" gridSize="10" guides="1" tooltips="1" connect="1" arrows="1" fold="1" page="1" pageScale="1" pageWidth="827" pageHeight="1169" math="0" shadow="0">
      <root>
        <mxCell id="0" />
        <mxCell id="1" parent="0" />
        <mxCell id="yDM1J8T15Cod_9oeqZbb-32" style="edgeStyle=orthogonalEdgeStyle;rounded=0;orthogonalLoop=1;jettySize=auto;html=1;entryX=0;entryY=0.5;entryDx=0;entryDy=0;strokeWidth=1;fontSize=17;fontColor=#000000;" edge="1" parent="1" source="yDM1J8T15Cod_9oeqZbb-1" target="yDM1J8T15Cod_9oeqZbb-31">
          <mxGeometry relative="1" as="geometry" />
        </mxCell>
        <mxCell id="yDM1J8T15Cod_9oeqZbb-1" value="" style="rounded=0;whiteSpace=wrap;html=1;" vertex="1" parent="1">
          <mxGeometry x="120" y="220" width="100" height="170" as="geometry" />
        </mxCell>
        <mxCell id="yDM1J8T15Cod_9oeqZbb-2" value="&lt;b&gt;&lt;font style=&quot;font-size: 20px;&quot;&gt;DNN模型&lt;/font&gt;&lt;/b&gt;" style="text;html=1;strokeColor=none;fillColor=none;align=center;verticalAlign=middle;whiteSpace=wrap;rounded=0;" vertex="1" parent="1">
          <mxGeometry x="120" y="230" width="100" height="30" as="geometry" />
        </mxCell>
        <mxCell id="yDM1J8T15Cod_9oeqZbb-4" value="" style="rounded=0;whiteSpace=wrap;html=1;fontSize=20;dashed=1;strokeColor=#66B2FF;strokeWidth=2;" vertex="1" parent="1">
          <mxGeometry x="550" y="165" width="250" height="280" as="geometry" />
        </mxCell>
        <mxCell id="yDM1J8T15Cod_9oeqZbb-5" value="&lt;font color=&quot;#66b2ff&quot;&gt;&lt;b&gt;HM系统&lt;/b&gt;&lt;/font&gt;" style="text;html=1;strokeColor=none;fillColor=none;align=center;verticalAlign=middle;whiteSpace=wrap;rounded=0;fontSize=20;" vertex="1" parent="1">
          <mxGeometry x="632.5" y="175" width="85" height="30" as="geometry" />
        </mxCell>
        <mxCell id="yDM1J8T15Cod_9oeqZbb-9" value="" style="sketch=0;outlineConnect=0;fontColor=#232F3E;gradientColor=none;fillColor=#d55907;strokeColor=none;dashed=0;verticalLabelPosition=bottom;verticalAlign=top;align=center;html=1;fontSize=12;fontStyle=0;aspect=fixed;pointerEvents=1;shape=mxgraph.aws4.braket_tensor_network;strokeWidth=2;" vertex="1" parent="1">
          <mxGeometry x="125" y="270" width="90" height="90" as="geometry" />
        </mxCell>
        <mxCell id="yDM1J8T15Cod_9oeqZbb-17" style="edgeStyle=orthogonalEdgeStyle;rounded=1;orthogonalLoop=1;jettySize=auto;html=1;exitX=0;exitY=0.5;exitDx=0;exitDy=0;entryX=0;entryY=0.5;entryDx=0;entryDy=0;fontSize=11;fontColor=default;strokeWidth=3;" edge="1" parent="1" target="yDM1J8T15Cod_9oeqZbb-21">
          <mxGeometry relative="1" as="geometry">
            <mxPoint x="580" y="390" as="sourcePoint" />
            <mxPoint x="600" y="260" as="targetPoint" />
            <Array as="points">
              <mxPoint x="570" y="390" />
              <mxPoint x="570" y="250" />
            </Array>
          </mxGeometry>
        </mxCell>
        <mxCell id="yDM1J8T15Cod_9oeqZbb-19" style="edgeStyle=orthogonalEdgeStyle;rounded=1;orthogonalLoop=1;jettySize=auto;html=1;strokeWidth=3;fontSize=11;fontColor=default;entryX=1;entryY=0.5;entryDx=0;entryDy=0;exitX=1.015;exitY=0.397;exitDx=0;exitDy=0;exitPerimeter=0;" edge="1" parent="1" source="yDM1J8T15Cod_9oeqZbb-21">
          <mxGeometry relative="1" as="geometry">
            <mxPoint x="760" y="260" as="sourcePoint" />
            <mxPoint x="770" y="390" as="targetPoint" />
            <Array as="points">
              <mxPoint x="790" y="245" />
              <mxPoint x="790" y="390" />
            </Array>
          </mxGeometry>
        </mxCell>
        <mxCell id="yDM1J8T15Cod_9oeqZbb-20" value="&lt;b&gt;&lt;font color=&quot;#000000&quot;&gt;迁入&lt;/font&gt;&lt;/b&gt;" style="text;html=1;strokeColor=none;fillColor=none;align=center;verticalAlign=middle;whiteSpace=wrap;rounded=0;fontSize=20;fontColor=#66B2FF;" vertex="1" parent="1">
          <mxGeometry x="570" y="300" width="50" height="30" as="geometry" />
        </mxCell>
        <mxCell id="yDM1J8T15Cod_9oeqZbb-21" value="" style="rounded=0;whiteSpace=wrap;html=1;shadow=0;strokeColor=default;strokeWidth=2;fontSize=20;fontColor=#000000;fillColor=#25aff4;gradientColor=#f52424;gradientDirection=east;" vertex="1" parent="1">
          <mxGeometry x="613.75" y="225" width="132.5" height="50" as="geometry" />
        </mxCell>
        <mxCell id="yDM1J8T15Cod_9oeqZbb-22" value="" style="rounded=0;whiteSpace=wrap;html=1;shadow=0;strokeColor=default;strokeWidth=2;fontSize=20;fontColor=#000000;fillColor=#25aff4;gradientColor=#f52424;gradientDirection=west;" vertex="1" parent="1">
          <mxGeometry x="580" y="365" width="190" height="50" as="geometry" />
        </mxCell>
        <mxCell id="yDM1J8T15Cod_9oeqZbb-23" value="&lt;font style=&quot;font-size: 17px;&quot;&gt;&lt;b&gt;预留&lt;/b&gt;&lt;/font&gt;" style="text;html=1;strokeColor=none;fillColor=none;align=center;verticalAlign=middle;whiteSpace=wrap;rounded=0;fontSize=20;fontColor=#000000;" vertex="1" parent="1">
          <mxGeometry x="700" y="235" width="46" height="30" as="geometry" />
        </mxCell>
        <mxCell id="yDM1J8T15Cod_9oeqZbb-25" value="" style="endArrow=none;dashed=1;html=1;rounded=0;strokeWidth=1;fontSize=20;fontColor=#000000;exitX=0.606;exitY=0.988;exitDx=0;exitDy=0;exitPerimeter=0;" edge="1" parent="1" source="yDM1J8T15Cod_9oeqZbb-21">
          <mxGeometry width="50" height="50" relative="1" as="geometry">
            <mxPoint x="692.2375" y="274" as="sourcePoint" />
            <mxPoint x="694" y="225" as="targetPoint" />
          </mxGeometry>
        </mxCell>
        <mxCell id="yDM1J8T15Cod_9oeqZbb-26" value="&lt;font color=&quot;#000000&quot;&gt;&lt;b&gt;逐出&lt;/b&gt;&lt;/font&gt;" style="text;html=1;strokeColor=none;fillColor=none;align=center;verticalAlign=middle;whiteSpace=wrap;rounded=0;fontSize=20;fontColor=#66B2FF;" vertex="1" parent="1">
          <mxGeometry x="740" y="300" width="50" height="30" as="geometry" />
        </mxCell>
        <mxCell id="yDM1J8T15Cod_9oeqZbb-27" value="DRAM" style="text;html=1;strokeColor=none;fillColor=none;align=center;verticalAlign=middle;whiteSpace=wrap;rounded=0;fontSize=17;fontColor=#000000;" vertex="1" parent="1">
          <mxGeometry x="645" y="235" width="60" height="30" as="geometry" />
        </mxCell>
        <mxCell id="yDM1J8T15Cod_9oeqZbb-28" value="NVM" style="text;html=1;strokeColor=none;fillColor=none;align=center;verticalAlign=middle;whiteSpace=wrap;rounded=0;fontSize=17;fontColor=#000000;" vertex="1" parent="1">
          <mxGeometry x="645" y="375" width="60" height="30" as="geometry" />
        </mxCell>
        <mxCell id="yDM1J8T15Cod_9oeqZbb-33" style="edgeStyle=orthogonalEdgeStyle;rounded=0;orthogonalLoop=1;jettySize=auto;html=1;exitX=1;exitY=0.5;exitDx=0;exitDy=0;entryX=0;entryY=0.5;entryDx=0;entryDy=0;strokeWidth=1;fontSize=17;fontColor=#000000;" edge="1" parent="1" source="yDM1J8T15Cod_9oeqZbb-31" target="yDM1J8T15Cod_9oeqZbb-4">
          <mxGeometry relative="1" as="geometry" />
        </mxCell>
        <mxCell id="yDM1J8T15Cod_9oeqZbb-31" value="" style="rounded=0;whiteSpace=wrap;html=1;fontSize=20;dashed=1;strokeColor=#ffde66;strokeWidth=2;" vertex="1" parent="1">
          <mxGeometry x="260" y="165" width="250" height="280" as="geometry" />
        </mxCell>
        <mxCell id="yDM1J8T15Cod_9oeqZbb-34" value="动态分析" style="swimlane;whiteSpace=wrap;html=1;shadow=0;sketch=0;fillStyle=hachure;strokeColor=#000000;strokeWidth=2;fontSize=17;fontColor=#000000;fillColor=none;gradientColor=#f52424;gradientDirection=west;startSize=30;" vertex="1" parent="1">
          <mxGeometry x="320" y="175" width="130" height="80" as="geometry" />
        </mxCell>
        <mxCell id="yDM1J8T15Cod_9oeqZbb-35" value="&lt;font style=&quot;font-size: 16px;&quot;&gt;①短期/长期张量&lt;br&gt;②是否在同一层&lt;/font&gt;" style="text;html=1;strokeColor=none;fillColor=none;align=center;verticalAlign=middle;whiteSpace=wrap;rounded=0;fontSize=17;fontColor=#000000;" vertex="1" parent="yDM1J8T15Cod_9oeqZbb-34">
          <mxGeometry y="30" width="130" height="50" as="geometry" />
        </mxCell>
      </root>
    </mxGraphModel>
  </diagram>
</mxfile>
